<svg width="145" height="28" viewBox="0 0 145 28" fill="none" xmlns="http://www.w3.org/2000/svg">
<path d="M129.473 1.56152V3.72559H128.473C128.209 3.72559 127.96 3.7345 127.742 3.75781C127.725 3.7596 127.709 3.76275 127.693 3.76465L132.656 12.7441L137.404 3.73535C137.292 3.7292 137.167 3.72559 137.027 3.72559H136.027V1.56152H143.357V3.72559H142.357C141.825 3.72559 141.192 3.77245 140.645 3.9209C140.083 4.07359 139.791 4.28511 139.671 4.47559L133.881 15.4434V24.1436C133.881 24.1573 133.884 24.168 133.884 24.1758C133.899 24.1859 133.927 24.2014 133.972 24.2197C134.207 24.3144 134.605 24.3613 135.152 24.3613H136.152V26.5586H126.881V24.3613H127.881C128.429 24.3613 128.826 24.3145 129.061 24.2197C129.106 24.2015 129.133 24.1849 129.148 24.1748C129.149 24.1672 129.151 24.1568 129.151 24.1436V16.1768L122.674 4.48047L122.569 4.30859C122.336 3.94813 122.189 3.85741 122.104 3.81934C121.962 3.75552 121.755 3.72559 121.169 3.72559H120.169V1.56152H129.473Z" fill="#F7DAC1" stroke="#213721" stroke-width="2"/>
<path d="M118.476 1.52881L118.673 2.27197L120.154 7.83154L120.428 8.86084L119.384 9.06982L119.219 9.10205L118.328 9.28076L118.066 8.41064L116.826 4.30322C116.733 4.04659 116.653 4.01145 116.612 3.9917C116.499 3.93835 116.276 3.89111 115.766 3.89111H114.319C114.041 3.89111 113.799 3.89074 113.579 3.90479C113.359 3.91888 113.21 3.94495 113.114 3.9751V24.144C113.114 24.1574 113.116 24.1676 113.116 24.1753C113.132 24.1854 113.159 24.2018 113.204 24.2202C113.439 24.3149 113.837 24.3618 114.384 24.3618H115.384V26.5591H106.08V24.3618H107.08C107.646 24.3618 108.053 24.315 108.292 24.2192C108.337 24.2011 108.364 24.1845 108.38 24.1743C108.381 24.1668 108.383 24.1569 108.383 24.144V3.9751C108.284 3.94441 108.131 3.91899 107.905 3.90479C107.679 3.89068 107.432 3.89111 107.146 3.89111H105.732C105.222 3.89111 104.988 3.93825 104.869 3.99365C104.828 4.01329 104.805 4.03166 104.785 4.05518C104.762 4.08307 104.721 4.14715 104.677 4.28271L103.432 8.41064L103.169 9.28076L102.279 9.10205L102.114 9.06982L101.07 8.86084L101.343 7.83154L102.824 2.27197L103.022 1.52881H118.476Z" fill="#F7DAC1" stroke="#213721" stroke-width="2"/>
<path d="M99.624 1.56152L99.8223 2.30273L101.303 7.83008L101.532 8.6875L100.708 9.01758L100.544 9.08301L99.5283 9.48926L99.2148 8.44141L97.9697 4.28223C97.9261 4.14646 97.8843 4.08247 97.8613 4.05469C97.8419 4.03117 97.8192 4.0128 97.7773 3.99316C97.659 3.93778 97.4249 3.89062 96.915 3.89062H91.6846C91.3982 3.89062 91.1517 3.8908 90.9277 3.90527C90.7012 3.91993 90.5501 3.94651 90.4541 3.97754C90.4518 3.97828 90.4494 3.97878 90.4473 3.97949V9.45508C91.1277 9.34666 91.8136 9.29298 92.4736 9.29297H93.3955C93.9648 9.29293 94.1372 9.21679 94.208 9.15527C94.2533 9.11583 94.4678 8.89041 94.4678 7.92383V6.92383H96.6318V15.7676H94.4678V14.7676C94.4678 13.0058 94.231 12.219 94.0195 11.8867C93.9335 11.7515 93.861 11.7063 93.8047 11.6816C93.7305 11.6493 93.6094 11.6221 93.3955 11.6221H92.4736C91.8152 11.6221 91.1231 11.6864 90.4473 11.8145V24.1113C90.546 24.1421 90.6992 24.1684 90.9258 24.1826C91.1509 24.1967 91.3984 24.1963 91.6846 24.1963H96.915C97.4417 24.1963 97.6713 24.1554 97.7871 24.1025C97.8241 24.0856 97.841 24.0699 97.8574 24.0498C97.8783 24.0242 97.9218 23.9595 97.9668 23.8145L99.2148 19.6768L99.4775 18.8066L100.368 18.9854L100.533 19.0176L101.577 19.2266L101.304 20.2559L99.8232 25.8164L99.625 26.5586H83.4463V24.3945H84.4463C84.9817 24.3945 85.3787 24.3416 85.6113 24.2432C85.6689 24.2188 85.6982 24.1973 85.7119 24.1865C85.7132 24.1779 85.7168 24.1641 85.7168 24.1436V15.4463C85.6486 15.7468 85.6104 16.068 85.6104 16.4121V17.4121H83.4463V16.4121C83.4464 14.264 84.3611 12.6075 85.7168 11.4561V3.97656C85.7168 3.9457 85.7121 3.92659 85.71 3.91602C85.6964 3.90611 85.669 3.8888 85.6191 3.86816C85.3886 3.77284 84.9947 3.72559 84.4463 3.72559H83.4463V1.56152H99.624Z" fill="#F7DAC1" stroke="#213721" stroke-width="2"/>
<path d="M69.7124 1.56152V3.72559H68.7124C68.3453 3.7256 68.04 3.74939 67.8169 3.7959L73.2144 18.4912L78.2241 4.31445L78.3647 3.85352C78.0837 3.76626 77.6408 3.72559 77.1353 3.72559H76.1353V1.56152H83.4653V3.72559H82.4653C81.9495 3.72559 81.5185 3.75339 81.1899 3.84766C80.9091 3.92831 80.8028 4.02842 80.7495 4.12109L73.1108 25.8896L72.8765 26.5586H70.8052V25.7031L62.938 4.32129L62.9272 4.29199L62.9175 4.26074C62.8613 4.07207 62.7987 3.98196 62.7593 3.93848C62.7223 3.89771 62.6736 3.86234 62.5884 3.83008C62.3661 3.74602 62.0391 3.72559 61.4419 3.72559H60.4419V1.56152H69.7124Z" fill="#F7DAC1" stroke="#213721" stroke-width="2"/>
<path d="M51.8501 1.56152V3.72559H50.8501C50.3017 3.72559 49.9078 3.77284 49.6772 3.86816C49.6266 3.88914 49.5987 3.9062 49.5854 3.91602C49.5833 3.92663 49.5796 3.94589 49.5796 3.97656V24.127C49.5843 24.1287 49.5888 24.132 49.5942 24.1338C49.6899 24.166 49.8385 24.1943 50.0571 24.2109C50.2728 24.2273 50.5129 24.2295 50.7847 24.2295H56.0151C56.544 24.2295 56.7767 24.1819 56.894 24.127C56.9369 24.1068 57.0154 24.0731 57.1079 23.8203L58.3472 19.6787L58.6606 18.6309L59.6772 19.0371L59.8413 19.1025L60.6655 19.4326L60.436 20.29L58.9556 25.8174L58.7563 26.5586H42.5464V24.3945H43.5464C44.113 24.3945 44.5151 24.3473 44.7505 24.251C44.8013 24.2302 44.8294 24.2122 44.8433 24.2021C44.8453 24.1914 44.8491 24.1728 44.8491 24.1436V3.97656C44.8491 3.94639 44.8453 3.92753 44.8433 3.91699C44.8292 3.9069 44.8008 3.88973 44.7505 3.86914C44.5151 3.77285 44.113 3.72559 43.5464 3.72559H42.5464V1.56152H51.8501Z" fill="#F7DAC1" stroke="#213721" stroke-width="2"/>
<path d="M40.8604 1.56152L41.0586 2.30273L42.5391 7.83008L42.7686 8.6875L41.9443 9.01758L41.7803 9.08301L40.7646 9.48926L40.4512 8.44141L39.2061 4.28223C39.1624 4.14646 39.1206 4.08247 39.0977 4.05469C39.0782 4.03117 39.0555 4.0128 39.0137 3.99316C38.8953 3.93778 38.6612 3.89062 38.1514 3.89062H32.9209C32.6345 3.89062 32.388 3.8908 32.1641 3.90527C31.9375 3.91993 31.7864 3.94651 31.6904 3.97754C31.6882 3.97828 31.6857 3.97878 31.6836 3.97949V9.45508C32.364 9.34666 33.05 9.29298 33.71 9.29297H34.6318C35.2012 9.29293 35.3735 9.21679 35.4443 9.15527C35.4896 9.11583 35.7041 8.89041 35.7041 7.92383V6.92383H37.8682V15.7676H35.7041V14.7676C35.7041 13.0058 35.4673 12.219 35.2559 11.8867C35.1698 11.7515 35.0974 11.7063 35.041 11.6816C34.9669 11.6493 34.8458 11.6221 34.6318 11.6221H33.71C33.0515 11.6221 32.3594 11.6864 31.6836 11.8145V24.1113C31.7824 24.1421 31.9356 24.1684 32.1621 24.1826C32.3872 24.1967 32.6347 24.1963 32.9209 24.1963H38.1514C38.678 24.1963 38.9076 24.1554 39.0234 24.1025C39.0605 24.0856 39.0773 24.0699 39.0938 24.0498C39.1146 24.0242 39.1581 23.9595 39.2031 23.8145L40.4512 19.6768L40.7139 18.8066L41.6045 18.9854L41.7695 19.0176L42.8135 19.2266L42.54 20.2559L41.0596 25.8164L40.8613 26.5586H24.6826V24.3945H25.6826C26.218 24.3945 26.615 24.3416 26.8477 24.2432C26.9053 24.2188 26.9345 24.1973 26.9482 24.1865C26.9495 24.1779 26.9531 24.1641 26.9531 24.1436V15.4463C26.8849 15.7468 26.8467 16.068 26.8467 16.4121V17.4121H24.6826V16.4121C24.6827 14.264 25.5974 12.6075 26.9531 11.4561V3.97656C26.9531 3.9457 26.9484 3.92659 26.9463 3.91602C26.9328 3.90611 26.9053 3.8888 26.8555 3.86816C26.6249 3.77284 26.231 3.72559 25.6826 3.72559H24.6826V1.56152H40.8604Z" fill="#F7DAC1" stroke="#213721" stroke-width="2"/>
<path d="M10.949 1.56152V3.72559H9.94897C9.58183 3.7256 9.27654 3.74939 9.05347 3.7959L14.4509 18.4912L19.4607 4.31445L19.6013 3.85352C19.3203 3.76626 18.8774 3.72559 18.3718 3.72559H17.3718V1.56152H24.7019V3.72559H23.7019C23.1861 3.72559 22.755 3.75339 22.4265 3.84766C22.1457 3.92831 22.0394 4.02842 21.9861 4.12109L14.3474 25.8896L14.113 26.5586H12.0417V25.7031L4.17456 4.32129L4.16382 4.29199L4.15405 4.26074C4.09789 4.07207 4.03522 3.98196 3.99585 3.93848C3.95889 3.89771 3.91017 3.86234 3.82495 3.83008C3.60269 3.74602 3.27565 3.72559 2.67847 3.72559H1.67847V1.56152H10.949Z" fill="#F7DAC1" stroke="#213721" stroke-width="2"/>
</svg>
