<svg width="141" height="24" viewBox="0 0 141 24" fill="none" xmlns="http://www.w3.org/2000/svg">
<path d="M130.882 13.1951V22.1439C130.882 23.1967 132.033 23.3612 133.152 23.3612V23.5586H125.881V23.3612C127 23.3612 128.151 23.1967 128.151 22.1439V13.9189L121.538 1.97622C120.847 0.791824 120.288 0.726025 119.169 0.726025V0.561523H126.473V0.726025C125.355 0.726025 124.072 0.857624 124.631 1.91042L130.322 12.2081H130.355L130.684 12.8332L136.409 1.97622C137.034 0.890525 136.146 0.726025 135.027 0.726025V0.561523H140.357V0.726025C139.205 0.726025 137.429 0.923425 136.804 1.97622L130.882 13.1951Z" fill="#C7D1C6"/>
<path d="M100.31 6.08891L101.79 0.528809H115.707L117.187 6.08891L117.023 6.12181L115.773 1.97641C115.444 1.05521 114.819 0.89071 113.766 0.89071H112.318C111.233 0.89071 110.114 0.89071 110.114 1.94351V22.1441C110.114 23.1969 111.265 23.3614 112.384 23.3614V23.5588H105.08V23.3614C106.232 23.3614 107.383 23.1969 107.383 22.1441V1.94351C107.383 0.89071 106.265 0.89071 105.146 0.89071H103.731C102.679 0.89071 102.021 1.05521 101.725 1.97641L100.474 6.12181L100.31 6.08891Z" fill="#C7D1C6"/>
<path d="M93.6322 12.7674H93.4677C93.4677 9.18132 92.5466 8.62202 91.3951 8.62202H90.4739C89.4869 8.62202 88.4341 8.75362 87.4471 9.01682V22.1439C87.4471 23.1967 88.5657 23.1967 89.6843 23.1967H94.9153C95.9681 23.1967 96.6261 23.0651 96.9222 22.111L98.1724 17.9656L98.3369 17.9985L96.8564 23.5586H82.4463V23.3941C83.5649 23.3941 84.7164 23.1967 84.7164 22.1439V10.2999C83.4662 11.2211 82.6108 12.57 82.6108 14.4124H82.4463C82.4463 12.4055 83.3675 10.925 84.7164 9.93802V1.97622C84.7164 0.890525 83.5649 0.726025 82.4463 0.726025V0.561523H96.8564L98.3369 6.08872L98.1724 6.15452L96.9222 1.97622C96.6261 1.05502 95.9681 0.890525 94.9153 0.890525H89.6843C88.5657 0.890525 87.4471 0.890525 87.4471 1.97622V8.68782C88.4341 8.42462 89.4869 8.29303 90.4739 8.29303H91.3951C92.5466 8.29303 93.4677 8.06272 93.4677 5.92422H93.6322V12.7674Z" fill="#C7D1C6"/>
<path d="M66.7128 0.561523V0.726025C65.7587 0.726025 64.7388 0.857624 64.673 1.58142L70.3647 17.0773L71.22 19.479L77.4052 1.97622H77.3723C77.7013 0.890525 76.2537 0.726025 75.1351 0.726025V0.561523H80.4649V0.726025C79.4121 0.726025 78.2606 0.824724 77.8329 1.71302L70.1673 23.5586H69.8054V23.5257L61.8765 1.97622C61.5146 0.758925 60.5605 0.726025 59.4419 0.726025V0.561523H66.7128Z" fill="#C7D1C6"/>
<path d="M46.5801 1.97622V22.1439C46.5801 23.1967 47.6987 23.2296 48.7844 23.2296H54.0154C55.1011 23.2296 55.7262 23.0651 56.0552 22.1439L57.3054 17.9656L57.4699 18.0314L55.9894 23.5586H41.5464V23.3941C42.6979 23.3941 43.8494 23.2296 43.8494 22.1439V1.97622C43.8494 0.890525 42.6979 0.726025 41.5464 0.726025V0.561523H48.8502V0.726025C47.7316 0.726025 46.5801 0.890525 46.5801 1.97622Z" fill="#C7D1C6"/>
<path d="M34.8686 12.7674H34.7041C34.7041 9.18132 33.7829 8.62202 32.6314 8.62202H31.7102C30.7232 8.62202 29.6704 8.75362 28.6834 9.01682V22.1439C28.6834 23.1967 29.802 23.1967 30.9206 23.1967H36.1517C37.2045 23.1967 37.8625 23.0651 38.1586 22.111L39.4088 17.9656L39.5733 17.9985L38.0928 23.5586H23.6826V23.3941C24.8012 23.3941 25.9527 23.1967 25.9527 22.1439V10.2999C24.7025 11.2211 23.8471 12.57 23.8471 14.4124H23.6826C23.6826 12.4055 24.6038 10.925 25.9527 9.93802V1.97622C25.9527 0.890525 24.8012 0.726025 23.6826 0.726025V0.561523H38.0928L39.5733 6.08872L39.4088 6.15452L38.1586 1.97622C37.8625 1.05502 37.2045 0.890525 36.1517 0.890525H30.9206C29.802 0.890525 28.6834 0.890525 28.6834 1.97622V8.68782C29.6704 8.42462 30.7232 8.29303 31.7102 8.29303H32.6314C33.7829 8.29303 34.7041 8.06272 34.7041 5.92422H34.8686V12.7674Z" fill="#C7D1C6"/>
<path d="M7.94934 0.561523V0.726025C6.99524 0.726025 5.97535 0.857624 5.90955 1.58142L11.6012 17.0773L12.4566 19.479L18.6418 1.97622H18.6089C18.9379 0.890525 17.4903 0.726025 16.3717 0.726025V0.561523H21.7015V0.726025C20.6487 0.726025 19.4972 0.824724 19.0695 1.71302L11.4038 23.5586H11.0419V23.5257L3.11306 1.97622C2.75116 0.758925 1.79706 0.726025 0.678467 0.726025V0.561523H7.94934Z" fill="#C7D1C6"/>
</svg>
